M48
; DRILL file {KiCad 6.0.11+dfsg-1} date сб, 10-жов-2026 11:56:56 +0300
; FORMAT={-:-/ absolute / metric / decimal}
; #@! TF.CreationDate,2026-10-10T11:56:56+03:00
; #@! TF.GenerationSoftware,Kicad,Pcbnew,6.0.11+dfsg-1
; #@! TF.FileFunction,Plated,1,2,PTH
FMAT,2
METRIC
; #@! TA.AperFunction,Plated,PTH,ComponentDrill
T1C0.400
; #@! TA.AperFunction,Plated,PTH,ViaDrill
T2C0.600
; #@! TA.AperFunction,Plated,PTH,ComponentDrill
T3C0.700
; #@! TA.AperFunction,Plated,PTH,ComponentDrill
T4C0.800
; #@! TA.AperFunction,Plated,PTH,ComponentDrill
T5C0.900
; #@! TA.AperFunction,Plated,PTH,ComponentDrill
T6C1.000
; #@! TA.AperFunction,Plated,PTH,ComponentDrill
T7C1.100
%
G90
G05
T2
X132.115Y-102.544
X132.12Y-108.084
X132.12Y-111.175
X133.263Y-104.825
X138.978Y-79.425
X140.375Y-76.885
X140.375Y-81.965
X143.296Y-111.175
X149.519Y-95.3
X164.465Y-81.086
X164.465Y-86.42
T3
X135.744Y-106.857
X143.364Y-106.857
X146.285Y-102.412
X146.285Y-110.032
X147.301Y-80.695
X147.301Y-82.981
X154.921Y-80.695
X154.921Y-82.981
T4
X135.734Y-76.708
X135.734Y-79.248
X135.734Y-81.788
X135.734Y-84.328
X135.734Y-86.868
X135.734Y-89.408
X135.734Y-91.948
X135.734Y-94.488
X135.734Y-97.028
X135.734Y-99.568
X135.784Y-104.19
X135.784Y-109.524
X140.784Y-104.19
X140.784Y-109.524
X143.354Y-76.708
X143.354Y-79.248
X143.354Y-81.788
X143.354Y-84.328
X143.354Y-86.868
X143.354Y-89.408
X143.354Y-91.948
X143.354Y-94.488
X143.354Y-97.028
X143.354Y-99.568
X147.955Y-92.85
X147.955Y-97.75
X148.611Y-78.028
X148.611Y-85.648
X152.381Y-89.117
X152.381Y-94.117
X152.381Y-96.483
X152.381Y-101.483
X153.611Y-78.028
X153.611Y-85.648
X156.815Y-90.767
X156.815Y-104.617
X158.876Y-109.465
X158.882Y-85.92
X158.892Y-78.79
X161.376Y-109.465
X161.382Y-85.92
X161.392Y-78.79
X161.815Y-90.767
X161.815Y-104.617
X163.068Y-93.913
X163.068Y-101.533
T5
X150.73Y-107.549
X150.73Y-110.089
T7
X159.062Y-95.152
X159.062Y-97.692
X159.062Y-100.233
T1
X169.725Y-78.743G85X168.725Y-78.743
G05
X169.725Y-81.243G85X168.725Y-81.243
G05
X168.725Y-86.243G85X169.725Y-86.243
G05
X168.725Y-88.743G85X169.725Y-88.743
G05
X174.225Y-84.243G85X174.225Y-83.243
G05
T6
X166.713Y-97.866G85X166.713Y-95.266
G05
X168.513Y-91.766G85X170.713Y-91.766
G05
X173.013Y-97.666G85X173.013Y-95.466
G05
T0
M30
