%TF.GenerationSoftware,KiCad,Pcbnew,6.0.11+dfsg-1*%
%TF.CreationDate,2026-10-10T11:57:02+03:00*%
%TF.ProjectId,Tiny_Sound_Source,54696e79-5f53-46f7-956e-645f536f7572,rev?*%
%TF.SameCoordinates,Original*%
%TF.FileFunction,OtherDrawing,Comment*%
%FSLAX46Y46*%
G04 Gerber Fmt 4.6, Leading zero omitted, Abs format (unit mm)*
G04 Created by KiCad (PCBNEW 6.0.11+dfsg-1) date 2026-10-10 11:57:02*
%MOMM*%
%LPD*%
G01*
G04 APERTURE LIST*
%ADD10C,0.150000*%
%ADD11C,0.075000*%
%ADD12C,0.050000*%
G04 APERTURE END LIST*
D10*
X166537000Y-77774000D02*
X177459000Y-77774000D01*
X171831000Y-106676500D02*
X171831000Y-106803500D01*
X169926000Y-105152500D02*
X169545000Y-105152500D01*
X173101000Y-109407000D02*
X173101000Y-108264000D01*
X152357240Y-79044040D02*
G75*
G03*
X152738240Y-78663000I-40J381040D01*
G01*
X172720000Y-108391000D02*
X172720000Y-109407000D01*
X145405000Y-107823000D02*
G75*
G03*
X145659000Y-108077000I254000J0D01*
G01*
X171831000Y-106168500D02*
X171831000Y-105152500D01*
X127929000Y-112064000D02*
X124754000Y-112064000D01*
X136946000Y-108635000D02*
G75*
G03*
X136565000Y-109016000I0J-381000D01*
G01*
X176657000Y-110931000D02*
G75*
G03*
X176149000Y-110423000I-508000J0D01*
G01*
X157480000Y-93659000D02*
X160655000Y-93659000D01*
X166089609Y-109032893D02*
G75*
G03*
X166602210Y-109428790I512591J133893D01*
G01*
X160655000Y-101660000D02*
X157480000Y-101660000D01*
X176657000Y-110931000D02*
X176657000Y-111439000D01*
X167259000Y-112095800D02*
G75*
G03*
X167767000Y-111587790I0J508000D01*
G01*
X136552500Y-104825000D02*
G75*
G03*
X136933510Y-105206000I381000J0D01*
G01*
X174117000Y-110804000D02*
X174244000Y-110804000D01*
X149531605Y-82049405D02*
G75*
G03*
X149277605Y-82303395I-5J-253995D01*
G01*
X166156000Y-87934000D02*
X166156000Y-90093000D01*
X174498000Y-107883000D02*
G75*
G03*
X174371000Y-107756000I-127000J0D01*
G01*
X167767000Y-111312000D02*
X167767000Y-111587790D01*
X163068000Y-95691000D02*
X163068000Y-95310000D01*
X173863000Y-108772000D02*
X173863000Y-108391000D01*
X172720000Y-109407000D02*
X173101000Y-109407000D01*
X168910000Y-111693000D02*
G75*
G03*
X169164000Y-111439000I0J254000D01*
G01*
X166624000Y-107248000D02*
G75*
G03*
X166116000Y-107756000I0J-508000D01*
G01*
X172085000Y-107756000D02*
X172085000Y-107883000D01*
X166624000Y-109915000D02*
X167259000Y-109915000D01*
X169904210Y-107756000D02*
X170307000Y-107756000D01*
X174498000Y-111058000D02*
G75*
G03*
X174244000Y-110804000I-254000J0D01*
G01*
X167386000Y-107883000D02*
G75*
G03*
X167132000Y-107629000I-254000J0D01*
G01*
X170307000Y-111439000D02*
G75*
G03*
X170561000Y-111693000I254000J0D01*
G01*
X166089609Y-111699893D02*
G75*
G03*
X166602210Y-112095790I512591J133893D01*
G01*
X171196000Y-105152500D02*
X171196000Y-106168500D01*
X168529000Y-111439000D02*
G75*
G03*
X168783000Y-111693000I254000J0D01*
G01*
X145659000Y-108077000D02*
X146929000Y-108077000D01*
X145455000Y-92125000D02*
X145455000Y-98348000D01*
X170688000Y-109004200D02*
G75*
G03*
X170942000Y-108750210I0J254000D01*
G01*
X171831000Y-105152500D02*
X172212000Y-105152500D01*
X168275000Y-104898500D02*
X168402000Y-104898500D01*
X151424003Y-97697595D02*
X151424003Y-100293391D01*
X139898800Y-103682000D02*
G75*
G03*
X139517750Y-103301000I-381000J0D01*
G01*
X172593000Y-112074000D02*
G75*
G03*
X172212000Y-111693000I-381000J0D01*
G01*
X136929658Y-103300958D02*
G75*
G03*
X136548658Y-103682000I42J-381042D01*
G01*
X169672000Y-105533500D02*
G75*
G03*
X169418000Y-105787500I0J-254000D01*
G01*
X152948003Y-100678303D02*
G75*
G03*
X153329003Y-100297243I-3J381003D01*
G01*
X158000102Y-105587000D02*
X160595898Y-105587000D01*
X167132000Y-106803500D02*
X167132000Y-105025500D01*
X170306990Y-108750210D02*
G75*
G03*
X170561000Y-109004210I254010J10D01*
G01*
X166115999Y-108010001D02*
G75*
G03*
X166623999Y-108518001I508001J1D01*
G01*
X174498000Y-111058000D02*
X174879000Y-111058000D01*
X170053000Y-105787500D02*
X170053000Y-106803500D01*
X166116000Y-104644500D02*
X166116000Y-105025500D01*
X169672000Y-105533500D02*
X169799000Y-105533500D01*
X169164000Y-108391000D02*
X169164000Y-108772000D01*
X156885000Y-108000000D02*
X156885000Y-106984000D01*
X157634500Y-91363000D02*
G75*
G03*
X158015510Y-91744000I381000J0D01*
G01*
X174117000Y-108137000D02*
X174244000Y-108137000D01*
X167132000Y-111185000D02*
X166623999Y-111185001D01*
X166624000Y-107248000D02*
X167259000Y-107248000D01*
X160655000Y-93659000D02*
X160655000Y-101660000D01*
X170836790Y-109407000D02*
X170412210Y-109407000D01*
X171704000Y-107756000D02*
X172085000Y-107756000D01*
X173101031Y-112074000D02*
G75*
G03*
X172847000Y-111693000I-412731J0D01*
G01*
X170815000Y-106295500D02*
G75*
G03*
X171323000Y-106803500I508000J0D01*
G01*
X163830000Y-99755000D02*
X162306000Y-99755000D01*
X149598097Y-107764960D02*
G75*
G03*
X149606000Y-109788000I1150903J-1007040D01*
G01*
X169037000Y-112074000D02*
X168656000Y-112074000D01*
X171704000Y-110423000D02*
X172593000Y-110423000D01*
X169058790Y-109428790D02*
G75*
G03*
X169566790Y-108920790I10J507990D01*
G01*
X168275000Y-104644500D02*
G75*
G03*
X168275000Y-104898500I0J-127000D01*
G01*
X171323000Y-106803500D02*
X171704000Y-106803500D01*
X174879000Y-111439000D02*
X174498000Y-111439000D01*
X160595898Y-91743998D02*
G75*
G03*
X160976898Y-91363000I2J380998D01*
G01*
G36*
X164084000Y-96580000D02*
G01*
X162052000Y-96580000D01*
X162052000Y-96199000D01*
X164084000Y-96199000D01*
X164084000Y-96580000D01*
G37*
X164084000Y-96580000D02*
X162052000Y-96580000D01*
X162052000Y-96199000D01*
X164084000Y-96199000D01*
X164084000Y-96580000D01*
X167132000Y-110296000D02*
X166751000Y-110296000D01*
X166116000Y-107756000D02*
X166115999Y-108010001D01*
X168126210Y-108920790D02*
G75*
G03*
X168634210Y-109428790I507990J-10D01*
G01*
X168402000Y-104898500D02*
G75*
G03*
X168402000Y-104644500I0J127000D01*
G01*
X174117000Y-110804000D02*
G75*
G03*
X173863000Y-111058000I0J-254000D01*
G01*
X169926000Y-111566000D02*
X169926000Y-110423000D01*
X167767000Y-104644500D02*
X167767000Y-105025500D01*
X145405000Y-107823000D02*
X145405000Y-104648000D01*
X167132000Y-109026000D02*
G75*
G03*
X167132000Y-108518000I0J254000D01*
G01*
X175768000Y-110423000D02*
G75*
G03*
X175260000Y-110931000I0J-508000D01*
G01*
X170942000Y-107756000D02*
X171344790Y-107756000D01*
X172252000Y-91998000D02*
X177967000Y-91998000D01*
X137974605Y-105925395D02*
X141149605Y-105925395D01*
X172212000Y-105152500D02*
X172212000Y-106930500D01*
X166029000Y-101142000D02*
X177967000Y-101142000D01*
X149352000Y-107248000D02*
X149606000Y-107248000D01*
X170942000Y-111439000D02*
X170942000Y-110423000D01*
X172339000Y-108137000D02*
G75*
G03*
X172085000Y-108391000I0J-254000D01*
G01*
X169545000Y-110931000D02*
X169545000Y-111566000D01*
X149277605Y-81287395D02*
G75*
G03*
X149531605Y-81541395I253995J-5D01*
G01*
X175260000Y-111566000D02*
G75*
G03*
X175768000Y-112074000I508000J0D01*
G01*
X172339000Y-108137000D02*
X172466000Y-108137000D01*
X168910000Y-111693000D02*
X168783000Y-111693000D01*
X152706605Y-83827395D02*
X149531605Y-83827395D01*
X172085000Y-109407000D02*
X172085000Y-108391000D01*
X146929000Y-104394000D02*
X145659000Y-104394000D01*
X164084000Y-95945000D02*
X164084000Y-99501000D01*
X170815000Y-105152500D02*
X170815000Y-106295500D01*
X137720605Y-106814395D02*
X137212605Y-106814395D01*
X168126210Y-108242210D02*
X168126210Y-108920790D01*
X151805003Y-97332003D02*
G75*
G03*
X151424003Y-97713003I-3J-380997D01*
G01*
X174244000Y-111693000D02*
G75*
G03*
X174498000Y-111439000I0J254000D01*
G01*
X170688000Y-111693000D02*
G75*
G03*
X170942000Y-111439000I0J254000D01*
G01*
X173863000Y-108772000D02*
G75*
G03*
X174117000Y-109026000I254000J0D01*
G01*
X149531605Y-82049395D02*
X152706605Y-82049395D01*
X173990000Y-110423000D02*
G75*
G03*
X173482000Y-110931000I0J-508000D01*
G01*
X169418000Y-105152500D02*
X169418000Y-105279500D01*
X170815000Y-112074000D02*
G75*
G03*
X171323000Y-111566000I0J508000D01*
G01*
X163068000Y-99755000D02*
X163068000Y-100136000D01*
X138470000Y-100888000D02*
X136946000Y-100888000D01*
X168148000Y-105152500D02*
X168529000Y-105152500D01*
X149773000Y-77139000D02*
G75*
G03*
X149392000Y-77520000I0J-381000D01*
G01*
X173101000Y-110931000D02*
G75*
G03*
X172593000Y-110423000I-508000J0D01*
G01*
X174879000Y-111566000D02*
X174879000Y-111439000D01*
X168529000Y-106803500D02*
X168148000Y-106803500D01*
X162052000Y-99501000D02*
G75*
G03*
X162306000Y-99755000I254000J0D01*
G01*
X174371000Y-107756000D02*
X173990000Y-107756000D01*
X176276000Y-111058000D02*
G75*
G03*
X176022000Y-110804000I-254000J0D01*
G01*
X172085000Y-110804000D02*
X172466000Y-110804000D01*
X167132000Y-108518000D02*
X166623999Y-108518001D01*
X167132000Y-111693000D02*
G75*
G03*
X167132000Y-111185000I0J254000D01*
G01*
X166624000Y-105025500D02*
X166751000Y-105025500D01*
X170434000Y-112074000D02*
X170815000Y-112074000D01*
X169566790Y-108242210D02*
G75*
G03*
X169058790Y-107734210I-507990J10D01*
G01*
X171704000Y-107438500D02*
G75*
G03*
X172212000Y-106930500I0J508000D01*
G01*
X153329040Y-90302760D02*
G75*
G03*
X152948000Y-89921760I-381040J-40D01*
G01*
X141403605Y-107449395D02*
X141403605Y-106179395D01*
X142153000Y-100888000D02*
X140502000Y-100888000D01*
X168656000Y-110423000D02*
G75*
G03*
X168148000Y-110931000I0J-508000D01*
G01*
X152960605Y-82938395D02*
X153468605Y-82938395D01*
X149395800Y-86283000D02*
G75*
G03*
X149776852Y-86664000I381000J0D01*
G01*
X167259000Y-112095790D02*
X166602210Y-112095790D01*
X152706605Y-81541395D02*
X149531605Y-81541395D01*
X152361092Y-84759000D02*
X149757592Y-84759000D01*
X170836790Y-109406990D02*
G75*
G03*
X171344790Y-108899000I10J507990D01*
G01*
X152960605Y-83573395D02*
X152960605Y-82303395D01*
X153329000Y-92890852D02*
X153329000Y-90287352D01*
X169164000Y-111058000D02*
G75*
G03*
X168910000Y-110804000I-254000J0D01*
G01*
X168634210Y-107734210D02*
X169058790Y-107734210D01*
X170942000Y-107057500D02*
X170942000Y-107438500D01*
X171704000Y-110423000D02*
X171704000Y-112074000D01*
X174498000Y-108391000D02*
X174498000Y-108772000D01*
X166751000Y-106803500D02*
X167132000Y-106803500D01*
X164084000Y-95945000D02*
G75*
G03*
X163830000Y-95691000I-254000J0D01*
G01*
X169566790Y-108242210D02*
X169566790Y-108920790D01*
X170053000Y-105787500D02*
G75*
G03*
X169799000Y-105533500I-254000J0D01*
G01*
X125897000Y-75996000D02*
X128310000Y-75996000D01*
X169164000Y-111058000D02*
X169164000Y-111439000D01*
X141149605Y-107703395D02*
X137974605Y-107703395D01*
X168529000Y-111439000D02*
X168529000Y-111058000D01*
X166089618Y-109032891D02*
X166497000Y-108772000D01*
X170815000Y-105152500D02*
X171196000Y-105152500D01*
X166156000Y-90093000D02*
X167426000Y-90093000D01*
X152960605Y-81287395D02*
X152960605Y-80017395D01*
X152151761Y-110174761D02*
G75*
G03*
X152019000Y-107248000I-1402761J1402761D01*
G01*
X165648000Y-101523000D02*
X167045000Y-101523000D01*
X172466000Y-111312000D02*
X172085000Y-111312000D01*
X167132000Y-109026000D02*
X166751000Y-109026000D01*
X172085000Y-111312000D02*
X172085000Y-110804000D01*
X149773000Y-84759000D02*
G75*
G03*
X149392000Y-85140000I0J-381000D01*
G01*
X172593000Y-112074000D02*
X173101000Y-112074000D01*
X171323000Y-110423000D02*
X171323000Y-111566000D01*
X124754000Y-76377000D02*
X127929000Y-76377000D01*
X173101000Y-110931000D02*
X173101000Y-111185000D01*
X149277605Y-80652395D02*
X148769605Y-80652395D01*
X166497000Y-108772000D02*
G75*
G03*
X166751000Y-109026000I254000J0D01*
G01*
X168910000Y-109026000D02*
G75*
G03*
X169164000Y-108772000I0J254000D01*
G01*
X168529000Y-108772000D02*
G75*
G03*
X168783000Y-109026000I254000J0D01*
G01*
X167259000Y-108137000D02*
X166751000Y-108137000D01*
X170688000Y-109004210D02*
X170561000Y-109004210D01*
X169418000Y-106803500D02*
X169418000Y-105914500D01*
X170561000Y-111693000D02*
X170688000Y-111693000D01*
X173482000Y-108264000D02*
X173482000Y-108899000D01*
X166624000Y-109915000D02*
G75*
G03*
X166116000Y-110423000I0J-508000D01*
G01*
X170434000Y-106803500D02*
X170434000Y-105660500D01*
X177459000Y-89712000D02*
X166537000Y-89712000D01*
X166116000Y-110423000D02*
X166115999Y-110677001D01*
X152706605Y-83827405D02*
G75*
G03*
X152960605Y-83573395I-5J254005D01*
G01*
X152960605Y-80017395D02*
G75*
G03*
X152706605Y-79763395I-254005J-5D01*
G01*
X169058790Y-109428790D02*
X168634210Y-109428790D01*
X176530000Y-112074000D02*
X176530000Y-111693000D01*
X167767000Y-110423000D02*
G75*
G03*
X167259000Y-109915000I-508000J0D01*
G01*
X167767000Y-111312000D02*
G75*
G03*
X167259000Y-110804000I-508000J0D01*
G01*
X174244000Y-109026000D02*
G75*
G03*
X174498000Y-108772000I0J254000D01*
G01*
X168275000Y-104644500D02*
X168402000Y-104644500D01*
X151424000Y-90291204D02*
X151424000Y-92887000D01*
X167386000Y-110550000D02*
X167767000Y-110423000D01*
X169418000Y-105914500D02*
X169418000Y-105787500D01*
X158011658Y-103681958D02*
G75*
G03*
X157630658Y-104063000I42J-381042D01*
G01*
X152361092Y-77139000D02*
X149757592Y-77139000D01*
X171577000Y-106422500D02*
G75*
G03*
X171831000Y-106168500I0J254000D01*
G01*
X173482000Y-111566000D02*
G75*
G03*
X173990000Y-112074000I508000J0D01*
G01*
X171196000Y-106168500D02*
G75*
G03*
X171450000Y-106422500I254000J0D01*
G01*
X152357240Y-86664040D02*
G75*
G03*
X152738240Y-86283000I-40J381040D01*
G01*
X153329003Y-100297243D02*
X153329003Y-97693743D01*
X169037000Y-106803500D02*
X169418000Y-106803500D01*
X170307000Y-108750210D02*
X170307000Y-107756000D01*
X139915100Y-109016000D02*
G75*
G03*
X139534092Y-108635000I-381000J0D01*
G01*
X149531605Y-79763395D02*
X152706605Y-79763395D01*
X147183000Y-104648000D02*
X147183000Y-107823000D01*
X168148000Y-111566000D02*
G75*
G03*
X168656000Y-112074000I508000J0D01*
G01*
X167386000Y-110550000D02*
G75*
G03*
X167132000Y-110296000I-254000J0D01*
G01*
X169904200Y-108899000D02*
G75*
G03*
X170412210Y-109407000I508000J0D01*
G01*
X167259000Y-109428800D02*
G75*
G03*
X167767000Y-108920790I0J508000D01*
G01*
X166029000Y-91998000D02*
X166918000Y-91998000D01*
X172720000Y-108391000D02*
G75*
G03*
X172466000Y-108137000I-254000J0D01*
G01*
X163310787Y-109524000D02*
G75*
G03*
X163310787Y-109524000I-3123787J0D01*
G01*
X170942000Y-107438500D02*
X171704000Y-107438500D01*
X167386000Y-107883000D02*
X167767000Y-107756000D01*
X157480000Y-96453000D02*
X160655000Y-96453000D01*
X168783000Y-110804000D02*
X168910000Y-110804000D01*
X167767000Y-108645000D02*
G75*
G03*
X167259000Y-108137000I-508000J0D01*
G01*
X174117000Y-108137000D02*
G75*
G03*
X173863000Y-108391000I0J-254000D01*
G01*
X167132000Y-107629000D02*
X166751000Y-107629000D01*
X174879000Y-109407000D02*
X174879000Y-107121000D01*
X158011658Y-89838958D02*
G75*
G03*
X157630658Y-90220000I42J-381042D01*
G01*
X150535000Y-98348000D02*
X150535000Y-92125000D01*
X142153000Y-75361000D02*
X142153000Y-100888000D01*
X175895000Y-110804000D02*
G75*
G03*
X175641000Y-111058000I0J-254000D01*
G01*
X171450000Y-106422500D02*
X171577000Y-106422500D01*
X166029000Y-93649000D02*
X166029000Y-91998000D01*
X171577000Y-107057500D02*
X170942000Y-107057500D01*
X166116000Y-105025500D02*
X166624000Y-105025500D01*
X177459000Y-88188000D02*
X177459000Y-89712000D01*
X147183000Y-104648000D02*
G75*
G03*
X146929000Y-104394000I-254000J0D01*
G01*
X166116000Y-104644500D02*
X167767000Y-104644500D01*
X173482000Y-108899000D02*
G75*
G03*
X173990000Y-109407000I508000J0D01*
G01*
X156377000Y-107492000D02*
X157393000Y-107492000D01*
X168529000Y-108772000D02*
X168529000Y-108391000D01*
X149277605Y-83573395D02*
G75*
G03*
X149531605Y-83827395I253995J-5D01*
G01*
X152960605Y-82303395D02*
G75*
G03*
X152706605Y-82049395I-254005J-5D01*
G01*
X173990000Y-107756000D02*
G75*
G03*
X173482000Y-108264000I0J-508000D01*
G01*
X152742100Y-85140000D02*
G75*
G03*
X152361092Y-84759000I-381000J0D01*
G01*
X175641000Y-111058000D02*
X176276000Y-111058000D01*
X174879000Y-110931000D02*
G75*
G03*
X174371000Y-110423000I-508000J0D01*
G01*
X172085000Y-112074000D02*
X172085000Y-111693000D01*
X137720605Y-106179395D02*
X137720605Y-107449395D01*
X146294000Y-108077000D02*
X146294000Y-108585000D01*
X156758000Y-77266000D02*
X156758000Y-76250000D01*
X168783000Y-108137000D02*
X168910000Y-108137000D01*
X146929000Y-108077000D02*
G75*
G03*
X147183000Y-107823000I0J254000D01*
G01*
X173863000Y-111058000D02*
X173863000Y-111439000D01*
X168634210Y-107734210D02*
G75*
G03*
X168126210Y-108242210I-10J-507990D01*
G01*
X137974605Y-105925405D02*
G75*
G03*
X137720605Y-106179395I-5J-253995D01*
G01*
X139517750Y-103301000D02*
X136914250Y-103301000D01*
X149531605Y-79763405D02*
G75*
G03*
X149277605Y-80017395I-5J-253995D01*
G01*
X160980800Y-90220000D02*
G75*
G03*
X160599750Y-89839000I-381000J0D01*
G01*
X168148000Y-106803500D02*
X168148000Y-105152500D01*
X149761444Y-86664000D02*
X152357240Y-86664000D01*
X174498000Y-108391000D02*
G75*
G03*
X174244000Y-108137000I-254000J0D01*
G01*
X166751000Y-107629000D02*
G75*
G03*
X166751000Y-108137000I0J-254000D01*
G01*
X136568800Y-110159000D02*
G75*
G03*
X136949852Y-110540000I381000J0D01*
G01*
X174879000Y-111058000D02*
X174879000Y-110931000D01*
X169037000Y-112074000D02*
G75*
G03*
X169545000Y-111566000I0J508000D01*
G01*
X174244000Y-109026000D02*
X174117000Y-109026000D01*
X141403605Y-106179395D02*
G75*
G03*
X141149605Y-105925395I-254005J-5D01*
G01*
X176149000Y-110423000D02*
X175768000Y-110423000D01*
X168148000Y-111566000D02*
X168148000Y-110931000D01*
X162306000Y-95691000D02*
G75*
G03*
X162052000Y-95945000I0J-254000D01*
G01*
X149761444Y-79044000D02*
X152357240Y-79044000D01*
X177459000Y-77774000D02*
X177459000Y-79298000D01*
X152960605Y-80652395D02*
X153468605Y-80652395D01*
X149395800Y-78663000D02*
G75*
G03*
X149776852Y-79044000I381000J0D01*
G01*
X136934444Y-110540000D02*
X139530240Y-110540000D01*
X141403605Y-106814395D02*
X141911605Y-106814395D01*
X175667815Y-111439000D02*
X176657000Y-111439000D01*
X166115999Y-110677001D02*
G75*
G03*
X166623999Y-111185001I508001J1D01*
G01*
X145455000Y-98348000D02*
G75*
G03*
X150535000Y-98348000I2540000J0D01*
G01*
X171577000Y-107057500D02*
G75*
G03*
X171831000Y-106803500I0J254000D01*
G01*
X160599750Y-89839000D02*
X157996250Y-89839000D01*
X167767000Y-108645000D02*
X167767000Y-108920790D01*
X163830000Y-99755000D02*
G75*
G03*
X164084000Y-99501000I0J254000D01*
G01*
X169904210Y-107756000D02*
X169904210Y-108899000D01*
X152019000Y-107248000D02*
X151765000Y-107248000D01*
X166537000Y-89712000D02*
X166537000Y-77774000D01*
X170942000Y-110423000D02*
X171323000Y-110423000D01*
X177459000Y-79298000D02*
X177967000Y-79298000D01*
X168910000Y-109026000D02*
X168783000Y-109026000D01*
X160599750Y-103682000D02*
X157996250Y-103682000D01*
X151424000Y-92887000D02*
G75*
G03*
X151805000Y-93268000I381000J0D01*
G01*
X173990000Y-110423000D02*
X174371000Y-110423000D01*
X139534092Y-108635000D02*
X136930592Y-108635000D01*
X151424009Y-100293391D02*
G75*
G03*
X151805003Y-100674391I380991J-9D01*
G01*
X162052000Y-99501000D02*
X162052000Y-95945000D01*
X168783000Y-110804000D02*
G75*
G03*
X168529000Y-111058000I0J-254000D01*
G01*
X136918102Y-105206000D02*
X139513898Y-105206000D01*
X169037000Y-105152500D02*
X169418000Y-105152500D01*
X171704000Y-112074000D02*
X172085000Y-112074000D01*
X168783000Y-108137000D02*
G75*
G03*
X168529000Y-108391000I0J-254000D01*
G01*
X157480000Y-101660000D02*
X157480000Y-93659000D01*
X173863000Y-111439000D02*
G75*
G03*
X174117000Y-111693000I254000J0D01*
G01*
X146294000Y-104394000D02*
X146294000Y-103886000D01*
X173101000Y-108264000D02*
G75*
G03*
X172593000Y-107756000I-508000J0D01*
G01*
X167767000Y-107756000D02*
G75*
G03*
X167259000Y-107248000I-508000J0D01*
G01*
X152706605Y-81541405D02*
G75*
G03*
X152960605Y-81287395I-5J254005D01*
G01*
X176022000Y-110804000D02*
X175895000Y-110804000D01*
X170053000Y-106803500D02*
X170434000Y-106803500D01*
X169164000Y-108391000D02*
G75*
G03*
X168910000Y-108137000I-254000J0D01*
G01*
X166497000Y-111439000D02*
G75*
G03*
X166751000Y-111693000I254000J0D01*
G01*
X168529000Y-105152500D02*
X168529000Y-106803500D01*
X173990000Y-109407000D02*
X174879000Y-109407000D01*
X156377000Y-83743000D02*
X157393000Y-83743000D01*
X169926000Y-110423000D02*
X170307000Y-110423000D01*
X158000102Y-91744000D02*
X160595898Y-91744000D01*
X145659000Y-104394000D02*
G75*
G03*
X145405000Y-104648000I0J-254000D01*
G01*
X128310000Y-75996000D02*
X128310000Y-79552000D01*
X169545000Y-105152500D02*
G75*
G03*
X169418000Y-105279500I0J-127000D01*
G01*
X175641000Y-111439000D02*
G75*
G03*
X175895000Y-111693000I254000J0D01*
G01*
X170307000Y-110423000D02*
X170307000Y-111439000D01*
X171704000Y-106803500D02*
G75*
G03*
X171831000Y-106676500I0J127000D01*
G01*
X174371000Y-112074000D02*
G75*
G03*
X174879000Y-111566000I0J508000D01*
G01*
X172212000Y-107756000D02*
G75*
G03*
X172085000Y-107883000I0J-127000D01*
G01*
X167767000Y-105025500D02*
X167132000Y-105025500D01*
X127929000Y-76377000D02*
X127929000Y-112064000D01*
X137720605Y-107449395D02*
G75*
G03*
X137974605Y-107703395I253995J-5D01*
G01*
X166751000Y-105025500D02*
X166751000Y-106803500D01*
X152948000Y-93271900D02*
G75*
G03*
X153329000Y-92890852I0J381000D01*
G01*
X152742100Y-77520000D02*
G75*
G03*
X152361092Y-77139000I-381000J0D01*
G01*
X174498000Y-107121000D02*
X174498000Y-107883000D01*
X173482000Y-111566000D02*
X173482000Y-110931000D01*
X174879000Y-107121000D02*
X174498000Y-107121000D01*
X140502000Y-100888000D02*
G75*
G03*
X138470000Y-100888000I-1016000J0D01*
G01*
X165648000Y-99745000D02*
X165648000Y-101523000D01*
X157634500Y-105206000D02*
G75*
G03*
X158015510Y-105587000I381000J0D01*
G01*
X175895000Y-111693000D02*
X176530000Y-111693000D01*
X166751000Y-110296000D02*
G75*
G03*
X166751000Y-110804000I0J-254000D01*
G01*
X172847000Y-111693000D02*
G75*
G03*
X173101000Y-111185000I-381000J508000D01*
G01*
X170942000Y-107756000D02*
X170942000Y-108750210D01*
X163310787Y-85902000D02*
G75*
G03*
X163310787Y-85902000I-3123787J0D01*
G01*
X156250000Y-76758000D02*
X157266000Y-76758000D01*
X160980800Y-104063000D02*
G75*
G03*
X160599750Y-103682000I-381000J0D01*
G01*
X162306000Y-95691000D02*
X163830000Y-95691000D01*
X172466000Y-111312000D02*
G75*
G03*
X172466000Y-110804000I0J254000D01*
G01*
X172212000Y-107756000D02*
X172593000Y-107756000D01*
X168656000Y-110423000D02*
X169037000Y-110423000D01*
X151805000Y-89925600D02*
G75*
G03*
X151424000Y-90306612I0J-381000D01*
G01*
X153329049Y-97709151D02*
G75*
G03*
X152948003Y-97328151I-381049J-49D01*
G01*
X172085000Y-111693000D02*
X172212000Y-111693000D01*
X149277605Y-80017395D02*
X149277605Y-81287395D01*
X169545000Y-110931000D02*
G75*
G03*
X169037000Y-110423000I-508000J0D01*
G01*
X167259000Y-109428790D02*
X166602210Y-109428790D01*
X169926000Y-111566000D02*
G75*
G03*
X170434000Y-112074000I508000J0D01*
G01*
X167132000Y-111693000D02*
X166751000Y-111693000D01*
X166029000Y-99364000D02*
X166029000Y-101142000D01*
X163310787Y-78790000D02*
G75*
G03*
X163310787Y-78790000I-3123787J0D01*
G01*
X171704000Y-109407000D02*
X172085000Y-109407000D01*
X160595898Y-105586998D02*
G75*
G03*
X160976898Y-105206000I2J380998D01*
G01*
X175260000Y-110931000D02*
X175260000Y-111566000D01*
X174117000Y-111693000D02*
X174244000Y-111693000D01*
X171344790Y-107756000D02*
X171344790Y-108899000D01*
X149277605Y-82303395D02*
X149277605Y-83573395D01*
X171704000Y-107756000D02*
X171704000Y-109407000D01*
X166089618Y-111699891D02*
X166497000Y-111439000D01*
X150535000Y-92125000D02*
G75*
G03*
X145455000Y-92125000I-2540000J0D01*
G01*
X156885000Y-84251000D02*
X156885000Y-83235000D01*
X149352000Y-107248000D02*
G75*
G03*
X149225000Y-110169000I1397000J-1524000D01*
G01*
X136946000Y-100888000D02*
X136946000Y-75361000D01*
X136946000Y-75361000D02*
X142153000Y-75361000D01*
X139530240Y-110540040D02*
G75*
G03*
X139911240Y-110159000I-40J381040D01*
G01*
X169037000Y-105152500D02*
X169037000Y-106803500D01*
X177967000Y-88188000D02*
X177459000Y-88188000D01*
X175768000Y-112074000D02*
X176530000Y-112074000D01*
X151892000Y-109788000D02*
G75*
G03*
X151892000Y-107756000I-1143000J1016000D01*
G01*
X141149605Y-107703405D02*
G75*
G03*
X141403605Y-107449395I-5J254005D01*
G01*
X170434000Y-105660500D02*
G75*
G03*
X169926000Y-105152500I-508000J0D01*
G01*
X167259000Y-110804000D02*
X166751000Y-110804000D01*
X149277605Y-82938395D02*
X148769605Y-82938395D01*
X139513898Y-105205998D02*
G75*
G03*
X139894898Y-104825000I2J380998D01*
G01*
X173990000Y-112074000D02*
X174371000Y-112074000D01*
X146645333Y-87412142D02*
X146597714Y-87459761D01*
X146454857Y-87507380D01*
X146359619Y-87507380D01*
X146216761Y-87459761D01*
X146121523Y-87364523D01*
X146073904Y-87269285D01*
X146026285Y-87078809D01*
X146026285Y-86935952D01*
X146073904Y-86745476D01*
X146121523Y-86650238D01*
X146216761Y-86555000D01*
X146359619Y-86507380D01*
X146454857Y-86507380D01*
X146597714Y-86555000D01*
X146645333Y-86602619D01*
X147502476Y-86840714D02*
X147502476Y-87507380D01*
X147264380Y-86459761D02*
X147026285Y-87174047D01*
X147645333Y-87174047D01*
X149820333Y-89190142D02*
X149772714Y-89237761D01*
X149629857Y-89285380D01*
X149534619Y-89285380D01*
X149391761Y-89237761D01*
X149296523Y-89142523D01*
X149248904Y-89047285D01*
X149201285Y-88856809D01*
X149201285Y-88713952D01*
X149248904Y-88523476D01*
X149296523Y-88428238D01*
X149391761Y-88333000D01*
X149534619Y-88285380D01*
X149629857Y-88285380D01*
X149772714Y-88333000D01*
X149820333Y-88380619D01*
X150772714Y-89285380D02*
X150201285Y-89285380D01*
X150487000Y-89285380D02*
X150487000Y-88285380D01*
X150391761Y-88428238D01*
X150296523Y-88523476D01*
X150201285Y-88571095D01*
X128799404Y-80832380D02*
X128799404Y-79832380D01*
X129037500Y-79832380D01*
X129180357Y-79880000D01*
X129275595Y-79975238D01*
X129323214Y-80070476D01*
X129370833Y-80260952D01*
X129370833Y-80403809D01*
X129323214Y-80594285D01*
X129275595Y-80689523D01*
X129180357Y-80784761D01*
X129037500Y-80832380D01*
X128799404Y-80832380D01*
X129989880Y-79832380D02*
X130085119Y-79832380D01*
X130180357Y-79880000D01*
X130227976Y-79927619D01*
X130275595Y-80022857D01*
X130323214Y-80213333D01*
X130323214Y-80451428D01*
X130275595Y-80641904D01*
X130227976Y-80737142D01*
X130180357Y-80784761D01*
X130085119Y-80832380D01*
X129989880Y-80832380D01*
X129894642Y-80784761D01*
X129847023Y-80737142D01*
X129799404Y-80641904D01*
X129751785Y-80451428D01*
X129751785Y-80213333D01*
X129799404Y-80022857D01*
X129847023Y-79927619D01*
X129894642Y-79880000D01*
X129989880Y-79832380D01*
X129206666Y-75966380D02*
X129206666Y-76680666D01*
X129159047Y-76823523D01*
X129063809Y-76918761D01*
X128920952Y-76966380D01*
X128825714Y-76966380D01*
X130206666Y-76966380D02*
X129635238Y-76966380D01*
X129920952Y-76966380D02*
X129920952Y-75966380D01*
X129825714Y-76109238D01*
X129730476Y-76204476D01*
X129635238Y-76252095D01*
X149757285Y-85227380D02*
X150376333Y-85227380D01*
X150043000Y-85608333D01*
X150185857Y-85608333D01*
X150281095Y-85655952D01*
X150328714Y-85703571D01*
X150376333Y-85798809D01*
X150376333Y-86036904D01*
X150328714Y-86132142D01*
X150281095Y-86179761D01*
X150185857Y-86227380D01*
X149900142Y-86227380D01*
X149804904Y-86179761D01*
X149757285Y-86132142D01*
X150709666Y-85227380D02*
X151328714Y-85227380D01*
X150995380Y-85608333D01*
X151138238Y-85608333D01*
X151233476Y-85655952D01*
X151281095Y-85703571D01*
X151328714Y-85798809D01*
X151328714Y-86036904D01*
X151281095Y-86132142D01*
X151233476Y-86179761D01*
X151138238Y-86227380D01*
X150852523Y-86227380D01*
X150757285Y-86179761D01*
X150709666Y-86132142D01*
X151662047Y-85227380D02*
X152281095Y-85227380D01*
X151947761Y-85608333D01*
X152090619Y-85608333D01*
X152185857Y-85655952D01*
X152233476Y-85703571D01*
X152281095Y-85798809D01*
X152281095Y-86036904D01*
X152233476Y-86132142D01*
X152185857Y-86179761D01*
X152090619Y-86227380D01*
X151804904Y-86227380D01*
X151709666Y-86179761D01*
X151662047Y-86132142D01*
X155567142Y-102906142D02*
X155519523Y-102953761D01*
X155376666Y-103001380D01*
X155281428Y-103001380D01*
X155138571Y-102953761D01*
X155043333Y-102858523D01*
X154995714Y-102763285D01*
X154948095Y-102572809D01*
X154948095Y-102429952D01*
X154995714Y-102239476D01*
X155043333Y-102144238D01*
X155138571Y-102049000D01*
X155281428Y-102001380D01*
X155376666Y-102001380D01*
X155519523Y-102049000D01*
X155567142Y-102096619D01*
X156519523Y-103001380D02*
X155948095Y-103001380D01*
X156233809Y-103001380D02*
X156233809Y-102001380D01*
X156138571Y-102144238D01*
X156043333Y-102239476D01*
X155948095Y-102287095D01*
X157471904Y-103001380D02*
X156900476Y-103001380D01*
X157186190Y-103001380D02*
X157186190Y-102001380D01*
X157090952Y-102144238D01*
X156995714Y-102239476D01*
X156900476Y-102287095D01*
X133310333Y-107319380D02*
X132977000Y-106843190D01*
X132738904Y-107319380D02*
X132738904Y-106319380D01*
X133119857Y-106319380D01*
X133215095Y-106367000D01*
X133262714Y-106414619D01*
X133310333Y-106509857D01*
X133310333Y-106652714D01*
X133262714Y-106747952D01*
X133215095Y-106795571D01*
X133119857Y-106843190D01*
X132738904Y-106843190D01*
X133691285Y-106414619D02*
X133738904Y-106367000D01*
X133834142Y-106319380D01*
X134072238Y-106319380D01*
X134167476Y-106367000D01*
X134215095Y-106414619D01*
X134262714Y-106509857D01*
X134262714Y-106605095D01*
X134215095Y-106747952D01*
X133643666Y-107319380D01*
X134262714Y-107319380D01*
X146746380Y-106386285D02*
X146746380Y-106957714D01*
X146746380Y-106672000D02*
X145746380Y-106672000D01*
X145889238Y-106767238D01*
X145984476Y-106862476D01*
X146032095Y-106957714D01*
X146746380Y-105957714D02*
X145746380Y-105957714D01*
X146746380Y-105386285D02*
X146174952Y-105814857D01*
X145746380Y-105386285D02*
X146317809Y-105957714D01*
X149820333Y-102144142D02*
X149772714Y-102191761D01*
X149629857Y-102239380D01*
X149534619Y-102239380D01*
X149391761Y-102191761D01*
X149296523Y-102096523D01*
X149248904Y-102001285D01*
X149201285Y-101810809D01*
X149201285Y-101667952D01*
X149248904Y-101477476D01*
X149296523Y-101382238D01*
X149391761Y-101287000D01*
X149534619Y-101239380D01*
X149629857Y-101239380D01*
X149772714Y-101287000D01*
X149820333Y-101334619D01*
X150201285Y-101334619D02*
X150248904Y-101287000D01*
X150344142Y-101239380D01*
X150582238Y-101239380D01*
X150677476Y-101287000D01*
X150725095Y-101334619D01*
X150772714Y-101429857D01*
X150772714Y-101525095D01*
X150725095Y-101667952D01*
X150153666Y-102239380D01*
X150772714Y-102239380D01*
X128799404Y-86372380D02*
X128799404Y-85372380D01*
X129037500Y-85372380D01*
X129180357Y-85420000D01*
X129275595Y-85515238D01*
X129323214Y-85610476D01*
X129370833Y-85800952D01*
X129370833Y-85943809D01*
X129323214Y-86134285D01*
X129275595Y-86229523D01*
X129180357Y-86324761D01*
X129037500Y-86372380D01*
X128799404Y-86372380D01*
X129751785Y-85467619D02*
X129799404Y-85420000D01*
X129894642Y-85372380D01*
X130132738Y-85372380D01*
X130227976Y-85420000D01*
X130275595Y-85467619D01*
X130323214Y-85562857D01*
X130323214Y-85658095D01*
X130275595Y-85800952D01*
X129704166Y-86372380D01*
X130323214Y-86372380D01*
X163536333Y-83729142D02*
X163488714Y-83776761D01*
X163345857Y-83824380D01*
X163250619Y-83824380D01*
X163107761Y-83776761D01*
X163012523Y-83681523D01*
X162964904Y-83586285D01*
X162917285Y-83395809D01*
X162917285Y-83252952D01*
X162964904Y-83062476D01*
X163012523Y-82967238D01*
X163107761Y-82872000D01*
X163250619Y-82824380D01*
X163345857Y-82824380D01*
X163488714Y-82872000D01*
X163536333Y-82919619D01*
X164107761Y-83252952D02*
X164012523Y-83205333D01*
X163964904Y-83157714D01*
X163917285Y-83062476D01*
X163917285Y-83014857D01*
X163964904Y-82919619D01*
X164012523Y-82872000D01*
X164107761Y-82824380D01*
X164298238Y-82824380D01*
X164393476Y-82872000D01*
X164441095Y-82919619D01*
X164488714Y-83014857D01*
X164488714Y-83062476D01*
X164441095Y-83157714D01*
X164393476Y-83205333D01*
X164298238Y-83252952D01*
X164107761Y-83252952D01*
X164012523Y-83300571D01*
X163964904Y-83348190D01*
X163917285Y-83443428D01*
X163917285Y-83633904D01*
X163964904Y-83729142D01*
X164012523Y-83776761D01*
X164107761Y-83824380D01*
X164298238Y-83824380D01*
X164393476Y-83776761D01*
X164441095Y-83729142D01*
X164488714Y-83633904D01*
X164488714Y-83443428D01*
X164441095Y-83348190D01*
X164393476Y-83300571D01*
X164298238Y-83252952D01*
X158631333Y-105150380D02*
X158059904Y-105150380D01*
X158345619Y-105150380D02*
X158345619Y-104150380D01*
X158250380Y-104293238D01*
X158155142Y-104388476D01*
X158059904Y-104436095D01*
X159250380Y-104150380D02*
X159345619Y-104150380D01*
X159440857Y-104198000D01*
X159488476Y-104245619D01*
X159536095Y-104340857D01*
X159583714Y-104531333D01*
X159583714Y-104769428D01*
X159536095Y-104959904D01*
X159488476Y-105055142D01*
X159440857Y-105102761D01*
X159345619Y-105150380D01*
X159250380Y-105150380D01*
X159155142Y-105102761D01*
X159107523Y-105055142D01*
X159059904Y-104959904D01*
X159012285Y-104769428D01*
X159012285Y-104531333D01*
X159059904Y-104340857D01*
X159107523Y-104245619D01*
X159155142Y-104198000D01*
X159250380Y-104150380D01*
X160440857Y-104483714D02*
X160440857Y-105150380D01*
X160202761Y-104102761D02*
X159964666Y-104817047D01*
X160583714Y-104817047D01*
X146010333Y-85221380D02*
X145677000Y-84745190D01*
X145438904Y-85221380D02*
X145438904Y-84221380D01*
X145819857Y-84221380D01*
X145915095Y-84269000D01*
X145962714Y-84316619D01*
X146010333Y-84411857D01*
X146010333Y-84554714D01*
X145962714Y-84649952D01*
X145915095Y-84697571D01*
X145819857Y-84745190D01*
X145438904Y-84745190D01*
X146867476Y-84554714D02*
X146867476Y-85221380D01*
X146629380Y-84173761D02*
X146391285Y-84888047D01*
X147010333Y-84888047D01*
X139729666Y-92399952D02*
X139729666Y-91923761D01*
X140015380Y-92495190D02*
X139015380Y-92161857D01*
X140015380Y-91828523D01*
X139015380Y-91638047D02*
X139015380Y-91066619D01*
X140015380Y-91352333D02*
X139015380Y-91352333D01*
X139348714Y-90876142D02*
X139348714Y-90495190D01*
X139015380Y-90733285D02*
X139872523Y-90733285D01*
X139967761Y-90685666D01*
X140015380Y-90590428D01*
X140015380Y-90495190D01*
X140015380Y-90161857D02*
X139348714Y-90161857D01*
X139015380Y-90161857D02*
X139063000Y-90209476D01*
X139110619Y-90161857D01*
X139063000Y-90114238D01*
X139015380Y-90161857D01*
X139110619Y-90161857D01*
X139348714Y-89685666D02*
X140015380Y-89685666D01*
X139443952Y-89685666D02*
X139396333Y-89638047D01*
X139348714Y-89542809D01*
X139348714Y-89399952D01*
X139396333Y-89304714D01*
X139491571Y-89257095D01*
X140015380Y-89257095D01*
X139348714Y-88876142D02*
X140015380Y-88638047D01*
X139348714Y-88399952D02*
X140015380Y-88638047D01*
X140253476Y-88733285D01*
X140301095Y-88780904D01*
X140348714Y-88876142D01*
X139110619Y-88066619D02*
X139063000Y-88019000D01*
X139015380Y-87923761D01*
X139015380Y-87685666D01*
X139063000Y-87590428D01*
X139110619Y-87542809D01*
X139205857Y-87495190D01*
X139301095Y-87495190D01*
X139443952Y-87542809D01*
X140015380Y-88114238D01*
X140015380Y-87495190D01*
X139015380Y-87161857D02*
X139015380Y-86542809D01*
X139396333Y-86876142D01*
X139396333Y-86733285D01*
X139443952Y-86638047D01*
X139491571Y-86590428D01*
X139586809Y-86542809D01*
X139824904Y-86542809D01*
X139920142Y-86590428D01*
X139967761Y-86638047D01*
X140015380Y-86733285D01*
X140015380Y-87019000D01*
X139967761Y-87114238D01*
X139920142Y-87161857D01*
X140015380Y-85590428D02*
X140015380Y-86161857D01*
X140015380Y-85876142D02*
X139015380Y-85876142D01*
X139158238Y-85971380D01*
X139253476Y-86066619D01*
X139301095Y-86161857D01*
X139015380Y-85257095D02*
X139015380Y-84638047D01*
X139396333Y-84971380D01*
X139396333Y-84828523D01*
X139443952Y-84733285D01*
X139491571Y-84685666D01*
X139586809Y-84638047D01*
X139824904Y-84638047D01*
X139920142Y-84685666D01*
X139967761Y-84733285D01*
X140015380Y-84828523D01*
X140015380Y-85114238D01*
X139967761Y-85209476D01*
X139920142Y-85257095D01*
X128799404Y-91912380D02*
X128799404Y-90912380D01*
X129037500Y-90912380D01*
X129180357Y-90960000D01*
X129275595Y-91055238D01*
X129323214Y-91150476D01*
X129370833Y-91340952D01*
X129370833Y-91483809D01*
X129323214Y-91674285D01*
X129275595Y-91769523D01*
X129180357Y-91864761D01*
X129037500Y-91912380D01*
X128799404Y-91912380D01*
X130227976Y-91245714D02*
X130227976Y-91912380D01*
X129989880Y-90864761D02*
X129751785Y-91579047D01*
X130370833Y-91579047D01*
X128799404Y-89142380D02*
X128799404Y-88142380D01*
X129037500Y-88142380D01*
X129180357Y-88190000D01*
X129275595Y-88285238D01*
X129323214Y-88380476D01*
X129370833Y-88570952D01*
X129370833Y-88713809D01*
X129323214Y-88904285D01*
X129275595Y-88999523D01*
X129180357Y-89094761D01*
X129037500Y-89142380D01*
X128799404Y-89142380D01*
X129704166Y-88142380D02*
X130323214Y-88142380D01*
X129989880Y-88523333D01*
X130132738Y-88523333D01*
X130227976Y-88570952D01*
X130275595Y-88618571D01*
X130323214Y-88713809D01*
X130323214Y-88951904D01*
X130275595Y-89047142D01*
X130227976Y-89094761D01*
X130132738Y-89142380D01*
X129847023Y-89142380D01*
X129751785Y-89094761D01*
X129704166Y-89047142D01*
X128299404Y-102706666D02*
X128775595Y-102706666D01*
X128204166Y-102992380D02*
X128537500Y-101992380D01*
X128870833Y-102992380D01*
X129775595Y-102897142D02*
X129727976Y-102944761D01*
X129585119Y-102992380D01*
X129489880Y-102992380D01*
X129347023Y-102944761D01*
X129251785Y-102849523D01*
X129204166Y-102754285D01*
X129156547Y-102563809D01*
X129156547Y-102420952D01*
X129204166Y-102230476D01*
X129251785Y-102135238D01*
X129347023Y-102040000D01*
X129489880Y-101992380D01*
X129585119Y-101992380D01*
X129727976Y-102040000D01*
X129775595Y-102087619D01*
X130204166Y-102992380D02*
X130204166Y-101992380D01*
X130775595Y-102992380D02*
X130347023Y-102420952D01*
X130775595Y-101992380D02*
X130204166Y-102563809D01*
X142962333Y-104557142D02*
X142914714Y-104604761D01*
X142771857Y-104652380D01*
X142676619Y-104652380D01*
X142533761Y-104604761D01*
X142438523Y-104509523D01*
X142390904Y-104414285D01*
X142343285Y-104223809D01*
X142343285Y-104080952D01*
X142390904Y-103890476D01*
X142438523Y-103795238D01*
X142533761Y-103700000D01*
X142676619Y-103652380D01*
X142771857Y-103652380D01*
X142914714Y-103700000D01*
X142962333Y-103747619D01*
X143819476Y-103652380D02*
X143629000Y-103652380D01*
X143533761Y-103700000D01*
X143486142Y-103747619D01*
X143390904Y-103890476D01*
X143343285Y-104080952D01*
X143343285Y-104461904D01*
X143390904Y-104557142D01*
X143438523Y-104604761D01*
X143533761Y-104652380D01*
X143724238Y-104652380D01*
X143819476Y-104604761D01*
X143867095Y-104557142D01*
X143914714Y-104461904D01*
X143914714Y-104223809D01*
X143867095Y-104128571D01*
X143819476Y-104080952D01*
X143724238Y-104033333D01*
X143533761Y-104033333D01*
X143438523Y-104080952D01*
X143390904Y-104128571D01*
X143343285Y-104223809D01*
X164512666Y-89047380D02*
X164512666Y-89761666D01*
X164465047Y-89904523D01*
X164369809Y-89999761D01*
X164226952Y-90047380D01*
X164131714Y-90047380D01*
X164941238Y-89142619D02*
X164988857Y-89095000D01*
X165084095Y-89047380D01*
X165322190Y-89047380D01*
X165417428Y-89095000D01*
X165465047Y-89142619D01*
X165512666Y-89237857D01*
X165512666Y-89333095D01*
X165465047Y-89475952D01*
X164893619Y-90047380D01*
X165512666Y-90047380D01*
X163536333Y-76617142D02*
X163488714Y-76664761D01*
X163345857Y-76712380D01*
X163250619Y-76712380D01*
X163107761Y-76664761D01*
X163012523Y-76569523D01*
X162964904Y-76474285D01*
X162917285Y-76283809D01*
X162917285Y-76140952D01*
X162964904Y-75950476D01*
X163012523Y-75855238D01*
X163107761Y-75760000D01*
X163250619Y-75712380D01*
X163345857Y-75712380D01*
X163488714Y-75760000D01*
X163536333Y-75807619D01*
X163869666Y-75712380D02*
X164536333Y-75712380D01*
X164107761Y-76712380D01*
X151987619Y-92855095D02*
X151940000Y-92807476D01*
X151892380Y-92712238D01*
X151892380Y-92474142D01*
X151940000Y-92378904D01*
X151987619Y-92331285D01*
X152082857Y-92283666D01*
X152178095Y-92283666D01*
X152320952Y-92331285D01*
X152892380Y-92902714D01*
X152892380Y-92283666D01*
X151892380Y-91664619D02*
X151892380Y-91569380D01*
X151940000Y-91474142D01*
X151987619Y-91426523D01*
X152082857Y-91378904D01*
X152273333Y-91331285D01*
X152511428Y-91331285D01*
X152701904Y-91378904D01*
X152797142Y-91426523D01*
X152844761Y-91474142D01*
X152892380Y-91569380D01*
X152892380Y-91664619D01*
X152844761Y-91759857D01*
X152797142Y-91807476D01*
X152701904Y-91855095D01*
X152511428Y-91902714D01*
X152273333Y-91902714D01*
X152082857Y-91855095D01*
X151987619Y-91807476D01*
X151940000Y-91759857D01*
X151892380Y-91664619D01*
X151892380Y-90712238D02*
X151892380Y-90617000D01*
X151940000Y-90521761D01*
X151987619Y-90474142D01*
X152082857Y-90426523D01*
X152273333Y-90378904D01*
X152511428Y-90378904D01*
X152701904Y-90426523D01*
X152797142Y-90474142D01*
X152844761Y-90521761D01*
X152892380Y-90617000D01*
X152892380Y-90712238D01*
X152844761Y-90807476D01*
X152797142Y-90855095D01*
X152701904Y-90902714D01*
X152511428Y-90950333D01*
X152273333Y-90950333D01*
X152082857Y-90902714D01*
X151987619Y-90855095D01*
X151940000Y-90807476D01*
X151892380Y-90712238D01*
X148423333Y-105160380D02*
X148090000Y-104684190D01*
X147851904Y-105160380D02*
X147851904Y-104160380D01*
X148232857Y-104160380D01*
X148328095Y-104208000D01*
X148375714Y-104255619D01*
X148423333Y-104350857D01*
X148423333Y-104493714D01*
X148375714Y-104588952D01*
X148328095Y-104636571D01*
X148232857Y-104684190D01*
X147851904Y-104684190D01*
X149375714Y-105160380D02*
X148804285Y-105160380D01*
X149090000Y-105160380D02*
X149090000Y-104160380D01*
X148994761Y-104303238D01*
X148899523Y-104398476D01*
X148804285Y-104446095D01*
X151987622Y-100261486D02*
X151940003Y-100213867D01*
X151892383Y-100118629D01*
X151892383Y-99880533D01*
X151940003Y-99785295D01*
X151987622Y-99737676D01*
X152082860Y-99690057D01*
X152178098Y-99690057D01*
X152320955Y-99737676D01*
X152892383Y-100309105D01*
X152892383Y-99690057D01*
X151892383Y-99071010D02*
X151892383Y-98975771D01*
X151940003Y-98880533D01*
X151987622Y-98832914D01*
X152082860Y-98785295D01*
X152273336Y-98737676D01*
X152511431Y-98737676D01*
X152701907Y-98785295D01*
X152797145Y-98832914D01*
X152844764Y-98880533D01*
X152892383Y-98975771D01*
X152892383Y-99071010D01*
X152844764Y-99166248D01*
X152797145Y-99213867D01*
X152701907Y-99261486D01*
X152511431Y-99309105D01*
X152273336Y-99309105D01*
X152082860Y-99261486D01*
X151987622Y-99213867D01*
X151940003Y-99166248D01*
X151892383Y-99071010D01*
X151892383Y-98118629D02*
X151892383Y-98023391D01*
X151940003Y-97928152D01*
X151987622Y-97880533D01*
X152082860Y-97832914D01*
X152273336Y-97785295D01*
X152511431Y-97785295D01*
X152701907Y-97832914D01*
X152797145Y-97880533D01*
X152844764Y-97928152D01*
X152892383Y-98023391D01*
X152892383Y-98118629D01*
X152844764Y-98213867D01*
X152797145Y-98261486D01*
X152701907Y-98309105D01*
X152511431Y-98356724D01*
X152273336Y-98356724D01*
X152082860Y-98309105D01*
X151987622Y-98261486D01*
X151940003Y-98213867D01*
X151892383Y-98118629D01*
X156043380Y-99484904D02*
X156043380Y-98818238D01*
X157043380Y-99246809D01*
X156471952Y-98294428D02*
X156424333Y-98389666D01*
X156376714Y-98437285D01*
X156281476Y-98484904D01*
X156233857Y-98484904D01*
X156138619Y-98437285D01*
X156091000Y-98389666D01*
X156043380Y-98294428D01*
X156043380Y-98103952D01*
X156091000Y-98008714D01*
X156138619Y-97961095D01*
X156233857Y-97913476D01*
X156281476Y-97913476D01*
X156376714Y-97961095D01*
X156424333Y-98008714D01*
X156471952Y-98103952D01*
X156471952Y-98294428D01*
X156519571Y-98389666D01*
X156567190Y-98437285D01*
X156662428Y-98484904D01*
X156852904Y-98484904D01*
X156948142Y-98437285D01*
X156995761Y-98389666D01*
X157043380Y-98294428D01*
X157043380Y-98103952D01*
X156995761Y-98008714D01*
X156948142Y-97961095D01*
X156852904Y-97913476D01*
X156662428Y-97913476D01*
X156567190Y-97961095D01*
X156519571Y-98008714D01*
X156471952Y-98103952D01*
X156043380Y-97294428D02*
X156043380Y-97199190D01*
X156091000Y-97103952D01*
X156138619Y-97056333D01*
X156233857Y-97008714D01*
X156424333Y-96961095D01*
X156662428Y-96961095D01*
X156852904Y-97008714D01*
X156948142Y-97056333D01*
X156995761Y-97103952D01*
X157043380Y-97199190D01*
X157043380Y-97294428D01*
X156995761Y-97389666D01*
X156948142Y-97437285D01*
X156852904Y-97484904D01*
X156662428Y-97532523D01*
X156424333Y-97532523D01*
X156233857Y-97484904D01*
X156138619Y-97437285D01*
X156091000Y-97389666D01*
X156043380Y-97294428D01*
X156043380Y-96056333D02*
X156043380Y-96532523D01*
X156519571Y-96580142D01*
X156471952Y-96532523D01*
X156424333Y-96437285D01*
X156424333Y-96199190D01*
X156471952Y-96103952D01*
X156519571Y-96056333D01*
X156614809Y-96008714D01*
X156852904Y-96008714D01*
X156948142Y-96056333D01*
X156995761Y-96103952D01*
X157043380Y-96199190D01*
X157043380Y-96437285D01*
X156995761Y-96532523D01*
X156948142Y-96580142D01*
X158631333Y-91307380D02*
X158059904Y-91307380D01*
X158345619Y-91307380D02*
X158345619Y-90307380D01*
X158250380Y-90450238D01*
X158155142Y-90545476D01*
X158059904Y-90593095D01*
X159250380Y-90307380D02*
X159345619Y-90307380D01*
X159440857Y-90355000D01*
X159488476Y-90402619D01*
X159536095Y-90497857D01*
X159583714Y-90688333D01*
X159583714Y-90926428D01*
X159536095Y-91116904D01*
X159488476Y-91212142D01*
X159440857Y-91259761D01*
X159345619Y-91307380D01*
X159250380Y-91307380D01*
X159155142Y-91259761D01*
X159107523Y-91212142D01*
X159059904Y-91116904D01*
X159012285Y-90926428D01*
X159012285Y-90688333D01*
X159059904Y-90497857D01*
X159107523Y-90402619D01*
X159155142Y-90355000D01*
X159250380Y-90307380D01*
X160440857Y-90640714D02*
X160440857Y-91307380D01*
X160202761Y-90259761D02*
X159964666Y-90974047D01*
X160583714Y-90974047D01*
X139398714Y-107309380D02*
X138827285Y-107309380D01*
X139113000Y-107309380D02*
X139113000Y-106309380D01*
X139017761Y-106452238D01*
X138922523Y-106547476D01*
X138827285Y-106595095D01*
X139827285Y-107309380D02*
X139827285Y-106309380D01*
X140398714Y-107309380D02*
X139970142Y-106737952D01*
X140398714Y-106309380D02*
X139827285Y-106880809D01*
X128799404Y-83602380D02*
X128799404Y-82602380D01*
X129037500Y-82602380D01*
X129180357Y-82650000D01*
X129275595Y-82745238D01*
X129323214Y-82840476D01*
X129370833Y-83030952D01*
X129370833Y-83173809D01*
X129323214Y-83364285D01*
X129275595Y-83459523D01*
X129180357Y-83554761D01*
X129037500Y-83602380D01*
X128799404Y-83602380D01*
X130323214Y-83602380D02*
X129751785Y-83602380D01*
X130037500Y-83602380D02*
X130037500Y-82602380D01*
X129942261Y-82745238D01*
X129847023Y-82840476D01*
X129751785Y-82888095D01*
X150376333Y-78607380D02*
X149804904Y-78607380D01*
X150090619Y-78607380D02*
X150090619Y-77607380D01*
X149995380Y-77750238D01*
X149900142Y-77845476D01*
X149804904Y-77893095D01*
X150995380Y-77607380D02*
X151090619Y-77607380D01*
X151185857Y-77655000D01*
X151233476Y-77702619D01*
X151281095Y-77797857D01*
X151328714Y-77988333D01*
X151328714Y-78226428D01*
X151281095Y-78416904D01*
X151233476Y-78512142D01*
X151185857Y-78559761D01*
X151090619Y-78607380D01*
X150995380Y-78607380D01*
X150900142Y-78559761D01*
X150852523Y-78512142D01*
X150804904Y-78416904D01*
X150757285Y-78226428D01*
X150757285Y-77988333D01*
X150804904Y-77797857D01*
X150852523Y-77702619D01*
X150900142Y-77655000D01*
X150995380Y-77607380D01*
X152185857Y-77940714D02*
X152185857Y-78607380D01*
X151947761Y-77559761D02*
X151709666Y-78274047D01*
X152328714Y-78274047D01*
X164639666Y-102001380D02*
X164639666Y-102715666D01*
X164592047Y-102858523D01*
X164496809Y-102953761D01*
X164353952Y-103001380D01*
X164258714Y-103001380D01*
X165020619Y-102001380D02*
X165639666Y-102001380D01*
X165306333Y-102382333D01*
X165449190Y-102382333D01*
X165544428Y-102429952D01*
X165592047Y-102477571D01*
X165639666Y-102572809D01*
X165639666Y-102810904D01*
X165592047Y-102906142D01*
X165544428Y-102953761D01*
X165449190Y-103001380D01*
X165163476Y-103001380D01*
X165068238Y-102953761D01*
X165020619Y-102906142D01*
X150955714Y-83433380D02*
X150384285Y-83433380D01*
X150670000Y-83433380D02*
X150670000Y-82433380D01*
X150574761Y-82576238D01*
X150479523Y-82671476D01*
X150384285Y-82719095D01*
X151384285Y-83433380D02*
X151384285Y-82433380D01*
X151955714Y-83433380D02*
X151527142Y-82861952D01*
X151955714Y-82433380D02*
X151384285Y-83004809D01*
X137549333Y-104769380D02*
X136977904Y-104769380D01*
X137263619Y-104769380D02*
X137263619Y-103769380D01*
X137168380Y-103912238D01*
X137073142Y-104007476D01*
X136977904Y-104055095D01*
X138168380Y-103769380D02*
X138263619Y-103769380D01*
X138358857Y-103817000D01*
X138406476Y-103864619D01*
X138454095Y-103959857D01*
X138501714Y-104150333D01*
X138501714Y-104388428D01*
X138454095Y-104578904D01*
X138406476Y-104674142D01*
X138358857Y-104721761D01*
X138263619Y-104769380D01*
X138168380Y-104769380D01*
X138073142Y-104721761D01*
X138025523Y-104674142D01*
X137977904Y-104578904D01*
X137930285Y-104388428D01*
X137930285Y-104150333D01*
X137977904Y-103959857D01*
X138025523Y-103864619D01*
X138073142Y-103817000D01*
X138168380Y-103769380D01*
X139358857Y-104102714D02*
X139358857Y-104769380D01*
X139120761Y-103721761D02*
X138882666Y-104436047D01*
X139501714Y-104436047D01*
X128799404Y-94682380D02*
X128799404Y-93682380D01*
X129037500Y-93682380D01*
X129180357Y-93730000D01*
X129275595Y-93825238D01*
X129323214Y-93920476D01*
X129370833Y-94110952D01*
X129370833Y-94253809D01*
X129323214Y-94444285D01*
X129275595Y-94539523D01*
X129180357Y-94634761D01*
X129037500Y-94682380D01*
X128799404Y-94682380D01*
X130275595Y-93682380D02*
X129799404Y-93682380D01*
X129751785Y-94158571D01*
X129799404Y-94110952D01*
X129894642Y-94063333D01*
X130132738Y-94063333D01*
X130227976Y-94110952D01*
X130275595Y-94158571D01*
X130323214Y-94253809D01*
X130323214Y-94491904D01*
X130275595Y-94587142D01*
X130227976Y-94634761D01*
X130132738Y-94682380D01*
X129894642Y-94682380D01*
X129799404Y-94634761D01*
X129751785Y-94587142D01*
X163853904Y-92460380D02*
X163853904Y-91460380D01*
X164092000Y-91460380D01*
X164234857Y-91508000D01*
X164330095Y-91603238D01*
X164377714Y-91698476D01*
X164425333Y-91888952D01*
X164425333Y-92031809D01*
X164377714Y-92222285D01*
X164330095Y-92317523D01*
X164234857Y-92412761D01*
X164092000Y-92460380D01*
X163853904Y-92460380D01*
X165377714Y-92460380D02*
X164806285Y-92460380D01*
X165092000Y-92460380D02*
X165092000Y-91460380D01*
X164996761Y-91603238D01*
X164901523Y-91698476D01*
X164806285Y-91746095D01*
X147000380Y-96011904D02*
X147000380Y-96583333D01*
X147000380Y-96297619D02*
X146000380Y-96297619D01*
X146143238Y-96392857D01*
X146238476Y-96488095D01*
X146286095Y-96583333D01*
X146000380Y-95154761D02*
X146000380Y-95345238D01*
X146048000Y-95440476D01*
X146095619Y-95488095D01*
X146238476Y-95583333D01*
X146428952Y-95630952D01*
X146809904Y-95630952D01*
X146905142Y-95583333D01*
X146952761Y-95535714D01*
X147000380Y-95440476D01*
X147000380Y-95250000D01*
X146952761Y-95154761D01*
X146905142Y-95107142D01*
X146809904Y-95059523D01*
X146571809Y-95059523D01*
X146476571Y-95107142D01*
X146428952Y-95154761D01*
X146381333Y-95250000D01*
X146381333Y-95440476D01*
X146428952Y-95535714D01*
X146476571Y-95583333D01*
X146571809Y-95630952D01*
X147000380Y-94630952D02*
X146000380Y-94630952D01*
X146714666Y-94297619D01*
X146000380Y-93964285D01*
X147000380Y-93964285D01*
X163536333Y-107351142D02*
X163488714Y-107398761D01*
X163345857Y-107446380D01*
X163250619Y-107446380D01*
X163107761Y-107398761D01*
X163012523Y-107303523D01*
X162964904Y-107208285D01*
X162917285Y-107017809D01*
X162917285Y-106874952D01*
X162964904Y-106684476D01*
X163012523Y-106589238D01*
X163107761Y-106494000D01*
X163250619Y-106446380D01*
X163345857Y-106446380D01*
X163488714Y-106494000D01*
X163536333Y-106541619D01*
X164012523Y-107446380D02*
X164203000Y-107446380D01*
X164298238Y-107398761D01*
X164345857Y-107351142D01*
X164441095Y-107208285D01*
X164488714Y-107017809D01*
X164488714Y-106636857D01*
X164441095Y-106541619D01*
X164393476Y-106494000D01*
X164298238Y-106446380D01*
X164107761Y-106446380D01*
X164012523Y-106494000D01*
X163964904Y-106541619D01*
X163917285Y-106636857D01*
X163917285Y-106874952D01*
X163964904Y-106970190D01*
X164012523Y-107017809D01*
X164107761Y-107065428D01*
X164298238Y-107065428D01*
X164393476Y-107017809D01*
X164441095Y-106970190D01*
X164488714Y-106874952D01*
X128799404Y-100222380D02*
X128799404Y-99222380D01*
X129037500Y-99222380D01*
X129180357Y-99270000D01*
X129275595Y-99365238D01*
X129323214Y-99460476D01*
X129370833Y-99650952D01*
X129370833Y-99793809D01*
X129323214Y-99984285D01*
X129275595Y-100079523D01*
X129180357Y-100174761D01*
X129037500Y-100222380D01*
X128799404Y-100222380D01*
X129704166Y-99222380D02*
X130370833Y-99222380D01*
X129942261Y-100222380D01*
X145319809Y-89063190D02*
X145319809Y-89539380D01*
X144986476Y-88539380D02*
X145319809Y-89063190D01*
X145653142Y-88539380D01*
X146510285Y-89539380D02*
X145938857Y-89539380D01*
X146224571Y-89539380D02*
X146224571Y-88539380D01*
X146129333Y-88682238D01*
X146034095Y-88777476D01*
X145938857Y-88825095D01*
X136977904Y-109198619D02*
X137025523Y-109151000D01*
X137120761Y-109103380D01*
X137358857Y-109103380D01*
X137454095Y-109151000D01*
X137501714Y-109198619D01*
X137549333Y-109293857D01*
X137549333Y-109389095D01*
X137501714Y-109531952D01*
X136930285Y-110103380D01*
X137549333Y-110103380D01*
X137930285Y-109198619D02*
X137977904Y-109151000D01*
X138073142Y-109103380D01*
X138311238Y-109103380D01*
X138406476Y-109151000D01*
X138454095Y-109198619D01*
X138501714Y-109293857D01*
X138501714Y-109389095D01*
X138454095Y-109531952D01*
X137882666Y-110103380D01*
X138501714Y-110103380D01*
X139358857Y-109436714D02*
X139358857Y-110103380D01*
X139120761Y-109055761D02*
X138882666Y-109770047D01*
X139501714Y-109770047D01*
X146645333Y-76998142D02*
X146597714Y-77045761D01*
X146454857Y-77093380D01*
X146359619Y-77093380D01*
X146216761Y-77045761D01*
X146121523Y-76950523D01*
X146073904Y-76855285D01*
X146026285Y-76664809D01*
X146026285Y-76521952D01*
X146073904Y-76331476D01*
X146121523Y-76236238D01*
X146216761Y-76141000D01*
X146359619Y-76093380D01*
X146454857Y-76093380D01*
X146597714Y-76141000D01*
X146645333Y-76188619D01*
X146978666Y-76093380D02*
X147597714Y-76093380D01*
X147264380Y-76474333D01*
X147407238Y-76474333D01*
X147502476Y-76521952D01*
X147550095Y-76569571D01*
X147597714Y-76664809D01*
X147597714Y-76902904D01*
X147550095Y-76998142D01*
X147502476Y-77045761D01*
X147407238Y-77093380D01*
X147121523Y-77093380D01*
X147026285Y-77045761D01*
X146978666Y-76998142D01*
X155567142Y-93254142D02*
X155519523Y-93301761D01*
X155376666Y-93349380D01*
X155281428Y-93349380D01*
X155138571Y-93301761D01*
X155043333Y-93206523D01*
X154995714Y-93111285D01*
X154948095Y-92920809D01*
X154948095Y-92777952D01*
X154995714Y-92587476D01*
X155043333Y-92492238D01*
X155138571Y-92397000D01*
X155281428Y-92349380D01*
X155376666Y-92349380D01*
X155519523Y-92397000D01*
X155567142Y-92444619D01*
X156519523Y-93349380D02*
X155948095Y-93349380D01*
X156233809Y-93349380D02*
X156233809Y-92349380D01*
X156138571Y-92492238D01*
X156043333Y-92587476D01*
X155948095Y-92635095D01*
X157138571Y-92349380D02*
X157233809Y-92349380D01*
X157329047Y-92397000D01*
X157376666Y-92444619D01*
X157424285Y-92539857D01*
X157471904Y-92730333D01*
X157471904Y-92968428D01*
X157424285Y-93158904D01*
X157376666Y-93254142D01*
X157329047Y-93301761D01*
X157233809Y-93349380D01*
X157138571Y-93349380D01*
X157043333Y-93301761D01*
X156995714Y-93254142D01*
X156948095Y-93158904D01*
X156900476Y-92968428D01*
X156900476Y-92730333D01*
X156948095Y-92539857D01*
X156995714Y-92444619D01*
X157043333Y-92397000D01*
X157138571Y-92349380D01*
X128799404Y-97452380D02*
X128799404Y-96452380D01*
X129037500Y-96452380D01*
X129180357Y-96500000D01*
X129275595Y-96595238D01*
X129323214Y-96690476D01*
X129370833Y-96880952D01*
X129370833Y-97023809D01*
X129323214Y-97214285D01*
X129275595Y-97309523D01*
X129180357Y-97404761D01*
X129037500Y-97452380D01*
X128799404Y-97452380D01*
X130227976Y-96452380D02*
X130037500Y-96452380D01*
X129942261Y-96500000D01*
X129894642Y-96547619D01*
X129799404Y-96690476D01*
X129751785Y-96880952D01*
X129751785Y-97261904D01*
X129799404Y-97357142D01*
X129847023Y-97404761D01*
X129942261Y-97452380D01*
X130132738Y-97452380D01*
X130227976Y-97404761D01*
X130275595Y-97357142D01*
X130323214Y-97261904D01*
X130323214Y-97023809D01*
X130275595Y-96928571D01*
X130227976Y-96880952D01*
X130132738Y-96833333D01*
X129942261Y-96833333D01*
X129847023Y-96880952D01*
X129799404Y-96928571D01*
X129751785Y-97023809D01*
X145177571Y-112780380D02*
X145177571Y-111780380D01*
X145415666Y-111780380D01*
X145558523Y-111828000D01*
X145653761Y-111923238D01*
X145701380Y-112018476D01*
X145749000Y-112208952D01*
X145749000Y-112351809D01*
X145701380Y-112542285D01*
X145653761Y-112637523D01*
X145558523Y-112732761D01*
X145415666Y-112780380D01*
X145177571Y-112780380D01*
X146129952Y-112732761D02*
X146272809Y-112780380D01*
X146510904Y-112780380D01*
X146606142Y-112732761D01*
X146653761Y-112685142D01*
X146701380Y-112589904D01*
X146701380Y-112494666D01*
X146653761Y-112399428D01*
X146606142Y-112351809D01*
X146510904Y-112304190D01*
X146320428Y-112256571D01*
X146225190Y-112208952D01*
X146177571Y-112161333D01*
X146129952Y-112066095D01*
X146129952Y-111970857D01*
X146177571Y-111875619D01*
X146225190Y-111828000D01*
X146320428Y-111780380D01*
X146558523Y-111780380D01*
X146701380Y-111828000D01*
X147082333Y-112732761D02*
X147225190Y-112780380D01*
X147463285Y-112780380D01*
X147558523Y-112732761D01*
X147606142Y-112685142D01*
X147653761Y-112589904D01*
X147653761Y-112494666D01*
X147606142Y-112399428D01*
X147558523Y-112351809D01*
X147463285Y-112304190D01*
X147272809Y-112256571D01*
X147177571Y-112208952D01*
X147129952Y-112161333D01*
X147082333Y-112066095D01*
X147082333Y-111970857D01*
X147129952Y-111875619D01*
X147177571Y-111828000D01*
X147272809Y-111780380D01*
X147510904Y-111780380D01*
X147653761Y-111828000D01*
X148082333Y-112399428D02*
X148844238Y-112399428D01*
X149320428Y-112780380D02*
X149320428Y-112113714D01*
X149320428Y-112208952D02*
X149368047Y-112161333D01*
X149463285Y-112113714D01*
X149606142Y-112113714D01*
X149701380Y-112161333D01*
X149749000Y-112256571D01*
X149749000Y-112780380D01*
X149749000Y-112256571D02*
X149796619Y-112161333D01*
X149891857Y-112113714D01*
X150034714Y-112113714D01*
X150129952Y-112161333D01*
X150177571Y-112256571D01*
X150177571Y-112780380D01*
X150796619Y-112780380D02*
X150701380Y-112732761D01*
X150653761Y-112685142D01*
X150606142Y-112589904D01*
X150606142Y-112304190D01*
X150653761Y-112208952D01*
X150701380Y-112161333D01*
X150796619Y-112113714D01*
X150939476Y-112113714D01*
X151034714Y-112161333D01*
X151082333Y-112208952D01*
X151129952Y-112304190D01*
X151129952Y-112589904D01*
X151082333Y-112685142D01*
X151034714Y-112732761D01*
X150939476Y-112780380D01*
X150796619Y-112780380D01*
X151987095Y-112780380D02*
X151987095Y-111780380D01*
X151987095Y-112732761D02*
X151891857Y-112780380D01*
X151701380Y-112780380D01*
X151606142Y-112732761D01*
X151558523Y-112685142D01*
X151510904Y-112589904D01*
X151510904Y-112304190D01*
X151558523Y-112208952D01*
X151606142Y-112161333D01*
X151701380Y-112113714D01*
X151891857Y-112113714D01*
X151987095Y-112161333D01*
X152844238Y-112732761D02*
X152749000Y-112780380D01*
X152558523Y-112780380D01*
X152463285Y-112732761D01*
X152415666Y-112637523D01*
X152415666Y-112256571D01*
X152463285Y-112161333D01*
X152558523Y-112113714D01*
X152749000Y-112113714D01*
X152844238Y-112161333D01*
X152891857Y-112256571D01*
X152891857Y-112351809D01*
X152415666Y-112447047D01*
X154558523Y-112780380D02*
X154082333Y-112780380D01*
X154082333Y-111780380D01*
X154891857Y-112256571D02*
X155225190Y-112256571D01*
X155368047Y-112780380D02*
X154891857Y-112780380D01*
X154891857Y-111780380D01*
X155368047Y-111780380D01*
X155796619Y-112780380D02*
X155796619Y-111780380D01*
X156034714Y-111780380D01*
X156177571Y-111828000D01*
X156272809Y-111923238D01*
X156320428Y-112018476D01*
X156368047Y-112208952D01*
X156368047Y-112351809D01*
X156320428Y-112542285D01*
X156272809Y-112637523D01*
X156177571Y-112732761D01*
X156034714Y-112780380D01*
X155796619Y-112780380D01*
X128751785Y-108532380D02*
X128751785Y-107532380D01*
X129132738Y-107532380D01*
X129227976Y-107580000D01*
X129275595Y-107627619D01*
X129323214Y-107722857D01*
X129323214Y-107865714D01*
X129275595Y-107960952D01*
X129227976Y-108008571D01*
X129132738Y-108056190D01*
X128751785Y-108056190D01*
X129942261Y-107532380D02*
X130132738Y-107532380D01*
X130227976Y-107580000D01*
X130323214Y-107675238D01*
X130370833Y-107865714D01*
X130370833Y-108199047D01*
X130323214Y-108389523D01*
X130227976Y-108484761D01*
X130132738Y-108532380D01*
X129942261Y-108532380D01*
X129847023Y-108484761D01*
X129751785Y-108389523D01*
X129704166Y-108199047D01*
X129704166Y-107865714D01*
X129751785Y-107675238D01*
X129847023Y-107580000D01*
X129942261Y-107532380D01*
X150955714Y-81147380D02*
X150384285Y-81147380D01*
X150670000Y-81147380D02*
X150670000Y-80147380D01*
X150574761Y-80290238D01*
X150479523Y-80385476D01*
X150384285Y-80433095D01*
X151384285Y-81147380D02*
X151384285Y-80147380D01*
X151955714Y-81147380D02*
X151527142Y-80575952D01*
X151955714Y-80147380D02*
X151384285Y-80718809D01*
X142962333Y-109891142D02*
X142914714Y-109938761D01*
X142771857Y-109986380D01*
X142676619Y-109986380D01*
X142533761Y-109938761D01*
X142438523Y-109843523D01*
X142390904Y-109748285D01*
X142343285Y-109557809D01*
X142343285Y-109414952D01*
X142390904Y-109224476D01*
X142438523Y-109129238D01*
X142533761Y-109034000D01*
X142676619Y-108986380D01*
X142771857Y-108986380D01*
X142914714Y-109034000D01*
X142962333Y-109081619D01*
X143867095Y-108986380D02*
X143390904Y-108986380D01*
X143343285Y-109462571D01*
X143390904Y-109414952D01*
X143486142Y-109367333D01*
X143724238Y-109367333D01*
X143819476Y-109414952D01*
X143867095Y-109462571D01*
X143914714Y-109557809D01*
X143914714Y-109795904D01*
X143867095Y-109891142D01*
X143819476Y-109938761D01*
X143724238Y-109986380D01*
X143486142Y-109986380D01*
X143390904Y-109938761D01*
X143343285Y-109891142D01*
X146010333Y-79379380D02*
X145677000Y-78903190D01*
X145438904Y-79379380D02*
X145438904Y-78379380D01*
X145819857Y-78379380D01*
X145915095Y-78427000D01*
X145962714Y-78474619D01*
X146010333Y-78569857D01*
X146010333Y-78712714D01*
X145962714Y-78807952D01*
X145915095Y-78855571D01*
X145819857Y-78903190D01*
X145438904Y-78903190D01*
X146343666Y-78379380D02*
X146962714Y-78379380D01*
X146629380Y-78760333D01*
X146772238Y-78760333D01*
X146867476Y-78807952D01*
X146915095Y-78855571D01*
X146962714Y-78950809D01*
X146962714Y-79188904D01*
X146915095Y-79284142D01*
X146867476Y-79331761D01*
X146772238Y-79379380D01*
X146486523Y-79379380D01*
X146391285Y-79331761D01*
X146343666Y-79284142D01*
D11*
%TO.C,J1*%
X124804357Y-74386380D02*
X124304357Y-74386380D01*
X124304357Y-74195904D01*
X124328167Y-74148285D01*
X124351976Y-74124476D01*
X124399595Y-74100666D01*
X124471024Y-74100666D01*
X124518643Y-74124476D01*
X124542452Y-74148285D01*
X124566262Y-74195904D01*
X124566262Y-74386380D01*
X124756738Y-73600666D02*
X124780547Y-73624476D01*
X124804357Y-73695904D01*
X124804357Y-73743523D01*
X124780547Y-73814952D01*
X124732928Y-73862571D01*
X124685309Y-73886380D01*
X124590071Y-73910190D01*
X124518643Y-73910190D01*
X124423405Y-73886380D01*
X124375786Y-73862571D01*
X124328167Y-73814952D01*
X124304357Y-73743523D01*
X124304357Y-73695904D01*
X124328167Y-73624476D01*
X124351976Y-73600666D01*
X124542452Y-73219714D02*
X124566262Y-73148285D01*
X124590071Y-73124476D01*
X124637690Y-73100666D01*
X124709119Y-73100666D01*
X124756738Y-73124476D01*
X124780547Y-73148285D01*
X124804357Y-73195904D01*
X124804357Y-73386380D01*
X124304357Y-73386380D01*
X124304357Y-73219714D01*
X124328167Y-73172095D01*
X124351976Y-73148285D01*
X124399595Y-73124476D01*
X124447214Y-73124476D01*
X124494833Y-73148285D01*
X124518643Y-73172095D01*
X124542452Y-73219714D01*
X124542452Y-73386380D01*
X124780547Y-72314952D02*
X124804357Y-72362571D01*
X124804357Y-72457809D01*
X124780547Y-72505428D01*
X124732928Y-72529238D01*
X124542452Y-72529238D01*
X124494833Y-72505428D01*
X124471024Y-72457809D01*
X124471024Y-72362571D01*
X124494833Y-72314952D01*
X124542452Y-72291142D01*
X124590071Y-72291142D01*
X124637690Y-72529238D01*
X124804357Y-71862571D02*
X124304357Y-71862571D01*
X124780547Y-71862571D02*
X124804357Y-71910190D01*
X124804357Y-72005428D01*
X124780547Y-72053047D01*
X124756738Y-72076857D01*
X124709119Y-72100666D01*
X124566262Y-72100666D01*
X124518643Y-72076857D01*
X124494833Y-72053047D01*
X124471024Y-72005428D01*
X124471024Y-71910190D01*
X124494833Y-71862571D01*
X124471024Y-71410190D02*
X124875786Y-71410190D01*
X124923405Y-71434000D01*
X124947214Y-71457809D01*
X124971024Y-71505428D01*
X124971024Y-71576857D01*
X124947214Y-71624476D01*
X124780547Y-71410190D02*
X124804357Y-71457809D01*
X124804357Y-71553047D01*
X124780547Y-71600666D01*
X124756738Y-71624476D01*
X124709119Y-71648285D01*
X124566262Y-71648285D01*
X124518643Y-71624476D01*
X124494833Y-71600666D01*
X124471024Y-71553047D01*
X124471024Y-71457809D01*
X124494833Y-71410190D01*
X124780547Y-70981619D02*
X124804357Y-71029238D01*
X124804357Y-71124476D01*
X124780547Y-71172095D01*
X124732928Y-71195904D01*
X124542452Y-71195904D01*
X124494833Y-71172095D01*
X124471024Y-71124476D01*
X124471024Y-71029238D01*
X124494833Y-70981619D01*
X124542452Y-70957809D01*
X124590071Y-70957809D01*
X124637690Y-71195904D01*
D12*
X123911500Y-67684000D02*
X123911500Y-120784000D01*
%TD*%
M02*
